<svg xmlns="http://www.w3.org/2000/svg" width="14.553" height="14.553" viewBox="0 0 14.553 14.553"><defs><style>.a{fill:#fff;}</style></defs><g transform="translate(2.16)"><path class="a" d="M86.63,0c-.058,0-.115,0-.172.008A.284.284,0,0,0,86.391,0H77.819A1.821,1.821,0,0,0,76,1.819V2.956a.284.284,0,0,0,.568,0V1.819A1.252,1.252,0,0,1,77.819.568h7.517a1.755,1.755,0,0,0-.467,1.194.284.284,0,0,0,0,.028.284.284,0,0,0,0,.028V3.761a.284.284,0,0,0,.568,0V2.047h2.672a.284.284,0,0,0,.284-.284A1.764,1.764,0,0,0,86.63,0ZM85.471,1.478a1.194,1.194,0,0,1,2.319,0Z" transform="translate(-76 0)"/></g><g transform="translate(0.803 1.535)"><path class="a" d="M37.05,53.99H35.244a.284.284,0,1,0,0,.568H36.4l-3.224,3.224-1.89-1.89a.284.284,0,0,0-.4,0l-2.551,2.551a.284.284,0,1,0,.4.4l2.35-2.35,1.89,1.89a.284.284,0,0,0,.4,0L36.765,55V56.08a.284.284,0,0,0,.568,0V54.274A.284.284,0,0,0,37.05,53.99Z" transform="translate(-28.249 -53.99)"/></g><g transform="translate(0 6.708)"><path class="a" d="M.485,236.083a.284.284,0,0,0-.4,0,.284.284,0,0,0,.2.485.284.284,0,0,0,.2-.485Z" transform="translate(0 -236)"/></g><g transform="translate(0.625 6.084)"><path class="a" d="M34.336,216.871a.284.284,0,0,0-.284-.284h-2.16v-2.16a.284.284,0,0,0-.284-.284,2.729,2.729,0,1,0,.8,5.339v1.255a1.194,1.194,0,1,1-2.388,0c0-.009,0-.018,0-.026a.288.288,0,0,0,0-.031.284.284,0,0,0-.284-.284H24.1v-6.082a.284.284,0,1,0-.568,0V220.4H22.284a.284.284,0,0,0-.284.284,1.821,1.821,0,0,0,1.819,1.819h7.39a1.764,1.764,0,0,0,1.762-1.762v-1.479c0-.008,0-.016,0-.023A2.73,2.73,0,0,0,34.336,216.871ZM23.819,221.93a1.253,1.253,0,0,1-1.218-.966h6.861a1.757,1.757,0,0,0,.452.966Zm7.788-2.9a2.16,2.16,0,0,1-.284-4.3v2.142a.284.284,0,0,0,.284.284h2.142A2.164,2.164,0,0,1,31.608,219.031Z" transform="translate(-22 -214.029)"/></g><g transform="translate(10.915 4.605)"><path class="a" d="M384.284,162.029a.284.284,0,0,0-.284.284v3.07a.284.284,0,0,0,.284.284h3.07a.284.284,0,0,0,.284-.284A3.358,3.358,0,0,0,384.284,162.029Zm.284,3.07v-2.487a2.79,2.79,0,0,1,2.487,2.487Z" transform="translate(-384 -162.029)"/></g><g transform="translate(3.269 9.209)"><path class="a" d="M117.729,324h-2.444a.284.284,0,0,0,0,.568h2.444a.284.284,0,0,0,0-.568Z" transform="translate(-115 -324)"/></g><g transform="translate(6.836 10.574)"><path class="a" d="M240.985,372.083a.284.284,0,1,0,.083.2A.286.286,0,0,0,240.985,372.083Z" transform="translate(-240.5 -372)"/></g><g transform="translate(3.269 10.574)"><path class="a" d="M117.729,372h-2.444a.284.284,0,0,0,0,.568h2.444a.284.284,0,0,0,0-.568Z" transform="translate(-115 -372)"/></g><g transform="translate(3.269 7.845)"><path class="a" d="M116.263,276h-.978a.284.284,0,0,0,0,.568h.978a.284.284,0,1,0,0-.568Z" transform="translate(-115 -276)"/></g></svg>