<svg xmlns="http://www.w3.org/2000/svg" width="11.229" height="13.073" viewBox="0 0 11.229 13.073"><defs><style>.a{fill:#fff;}</style></defs><g transform="translate(-24.669)"><path class="a" d="M97.01,7.373a3.544,3.544,0,0,0,3.023-3.687C100.032,1.65,99.757,0,97.01,0s-3.023,1.65-3.023,3.686A3.544,3.544,0,0,0,97.01,7.373Zm-2.571-4.3A1.663,1.663,0,0,1,96.1,2.207s.589,1.428,3.479.787c.012.228.015.461.015.693a3.287,3.287,0,0,1-1.032,2.5,1.977,1.977,0,0,1-3.1,0,3.287,3.287,0,0,1-1.032-2.5C94.427,3.481,94.43,3.274,94.439,3.071Z" transform="translate(-66.726)"/><path class="a" d="M35.895,192.167a4.309,4.309,0,0,0-1.109-2.635c-.435-.3-1.953-1.111-2.6-1.457l-.011-.006a.212.212,0,0,0-.231.02,2.754,2.754,0,0,1-1.106.534.212.212,0,0,0-.152.132l-.4,1.058-.4-1.058a.212.212,0,0,0-.152-.132,2.754,2.754,0,0,1-1.106-.534.212.212,0,0,0-.231-.02c-.641.342-2.177,1.17-2.611,1.462-.734.494-1.054,2.283-1.111,2.636a.212.212,0,0,0,.009.1c.026.074.7,1.815,5.6,1.815s5.576-1.741,5.6-1.815A.212.212,0,0,0,35.895,192.167Zm-2.259-.586-.96.3-.96-.3v-.516h1.919Z" transform="translate(0 -181.013)"/></g></svg>