<svg xmlns="http://www.w3.org/2000/svg" width="35.566" height="35.566" viewBox="0 0 35.566 35.566"><defs><style>.a{fill:#fff;}.b{fill:#888;}</style></defs><g transform="translate(-1121.968 -95.481)"><circle class="a" cx="17.783" cy="17.783" r="17.783" transform="translate(1121.968 95.481)"/><g transform="translate(1129.511 103.611)"><g transform="translate(2.569 2.525)"><path class="b" d="M73.013,64.09a6.394,6.394,0,1,0,0,9.047A6.4,6.4,0,0,0,73.013,64.09Zm-.465,8.582a5.737,5.737,0,1,1,0-8.117A5.746,5.746,0,0,1,72.549,72.672Z" transform="translate(-62.093 -62.22)"/></g><g transform="translate(15.354 5.785)"><path class="b" d="M377.807,142.767a.329.329,0,1,0-.607.253,6.913,6.913,0,0,1,.533,2.678.329.329,0,1,0,.657,0A7.565,7.565,0,0,0,377.807,142.767Z" transform="translate(-377.175 -142.565)"/></g><g transform="translate(8.637 1.315)"><path class="b" d="M218.174,35.608a7.722,7.722,0,0,0-.828-.979,7.554,7.554,0,0,0-5.377-2.227.329.329,0,1,0,0,.657,6.9,6.9,0,0,1,4.912,2.035,7.052,7.052,0,0,1,.758.9.329.329,0,0,0,.536-.381Z" transform="translate(-211.64 -32.402)"/></g><g transform="translate(0.051 0)"><g transform="translate(0 0)"><path class="b" d="M20.727,18.727l-2.479-2.479a.329.329,0,0,0-.465,0l-.511.511L15.5,14.988a8.922,8.922,0,1,0-.465.465l1.771,1.771-.511.511a.329.329,0,0,0,0,.465l2.479,2.479a.329.329,0,0,0,.465,0l1.488-1.488A.329.329,0,0,0,20.727,18.727ZM14.807,14.76A8.261,8.261,0,0,1,3.124,3.077,8.261,8.261,0,1,1,14.807,14.76Zm4.2,5.222-2.014-2.014.511-.511h0l.511-.511,2.014,2.014Z" transform="translate(-0.051 0)"/></g></g><g transform="translate(3.862 5.259)"><path class="b" d="M103.579,135.043h-.373v-5.106a.329.329,0,0,0-.329-.329H101.3a.329.329,0,0,0-.329.329v5.106h-.92v-3.528a.329.329,0,0,0-.329-.329H98.145a.329.329,0,0,0-.329.329v3.528H96.9v-4.054a.329.329,0,0,0-.329-.329H94.989a.329.329,0,0,0-.329.329v4.054h-.373a.329.329,0,1,0,0,.657h9.291a.329.329,0,0,0,0-.657Zm-7.341,0h-.92v-3.725h.92Zm3.156,0h-.92v-3.2h.92Zm3.156,0h-.92v-4.777h.92Z" transform="translate(-93.959 -129.608)"/></g></g></g></svg>