<svg xmlns="http://www.w3.org/2000/svg" xmlns:xlink="http://www.w3.org/1999/xlink" width="61" height="61" viewBox="0 0 61 61"><defs><style>.a{fill:#7728d5;}.b{fill:#fafafa;}.c{filter:url(#a);}</style><filter id="a" x="0" y="0" width="61" height="61" filterUnits="userSpaceOnUse"><feOffset dy="3" input="SourceAlpha"/><feGaussianBlur stdDeviation="3" result="b"/><feFlood flood-opacity="0.161"/><feComposite operator="in" in2="b"/><feComposite in="SourceGraphic"/></filter></defs><g transform="translate(-618 -148)"><g class="c" transform="matrix(1, 0, 0, 1, 618, 148)"><circle class="a" cx="21.5" cy="21.5" r="21.5" transform="translate(9 6)"/></g><g transform="translate(613.627 166)"><path class="b" d="M38.673,15.68l-.246,1q-1.105.436-1.764.664a4.652,4.652,0,0,1-1.529.229,3.053,3.053,0,0,1-2.081-.652,2.112,2.112,0,0,1-.742-1.658,5.863,5.863,0,0,1,.055-.8q.056-.408.179-.921l.921-3.259q.123-.468.207-.887a3.856,3.856,0,0,0,.084-.764,1.181,1.181,0,0,0-.258-.871,1.456,1.456,0,0,0-.985-.246,2.581,2.581,0,0,0-.732.112c-.25.074-.465.146-.644.212l.246-1q.9-.368,1.731-.63a5.178,5.178,0,0,1,1.566-.263,2.978,2.978,0,0,1,2.049.642,2.131,2.131,0,0,1,.72,1.668c0,.142-.016.391-.05.748a5,5,0,0,1-.184.983L36.3,13.234a8.623,8.623,0,0,0-.2.894,4.6,4.6,0,0,0-.09.759,1.093,1.093,0,0,0,.289.882,1.63,1.63,0,0,0,1,.234,2.9,2.9,0,0,0,.758-.117A4.241,4.241,0,0,0,38.673,15.68Zm.233-13.627A1.9,1.9,0,0,1,38.264,3.5a2.184,2.184,0,0,1-1.544.6,2.208,2.208,0,0,1-1.552-.6,1.9,1.9,0,0,1-.647-1.446A1.914,1.914,0,0,1,35.167.6a2.291,2.291,0,0,1,3.1,0A1.918,1.918,0,0,1,38.905,2.053Z"/></g></g></svg>