<svg xmlns="http://www.w3.org/2000/svg" width="55" height="55" viewBox="0 0 55 55"><defs><style>.a{fill:rgba(241,109,45,0.08);}.b{fill:#f16d2d;}</style></defs><g transform="translate(-827.5 -196.5)"><circle class="a" cx="27.5" cy="27.5" r="27.5" transform="translate(827.5 196.5)"/><g transform="translate(842.9 212)"><g transform="translate(2.959 2.916)"><path class="b" d="M74.707,64.38a7.386,7.386,0,1,0,0,10.45A7.4,7.4,0,0,0,74.707,64.38Zm-.537,9.913a6.627,6.627,0,1,1,0-9.376A6.637,6.637,0,0,1,74.17,74.293Z" transform="translate(-62.093 -62.22)"/></g><g transform="translate(17.728 6.682)"><path class="b" d="M377.9,142.8a.38.38,0,1,0-.7.293,7.985,7.985,0,0,1,.615,3.094.38.38,0,1,0,.759,0A8.74,8.74,0,0,0,377.9,142.8Z" transform="translate(-377.175 -142.565)"/></g><g transform="translate(9.969 1.519)"><path class="b" d="M219.187,36.105a8.919,8.919,0,0,0-.957-1.131A8.726,8.726,0,0,0,212.02,32.4a.38.38,0,1,0,0,.759,7.971,7.971,0,0,1,5.674,2.35,8.145,8.145,0,0,1,.875,1.034.38.38,0,0,0,.619-.44Z" transform="translate(-211.64 -32.402)"/></g><g transform="translate(0.051 0)"><g transform="translate(0 0)"><path class="b" d="M23.933,21.632,21.07,18.768a.38.38,0,0,0-.537,0l-.591.591L17.9,17.313a10.305,10.305,0,1,0-.537.537L19.4,19.9l-.591.591a.38.38,0,0,0,0,.537l2.864,2.864a.38.38,0,0,0,.537,0l1.718-1.718A.38.38,0,0,0,23.933,21.632ZM17.1,17.05A9.543,9.543,0,0,1,3.6,3.554a9.543,9.543,0,1,1,13.5,13.5Zm4.851,6.032L19.62,20.755l.59-.59h0l.59-.59L23.128,21.9Z" transform="translate(-0.051 0)"/></g></g><g transform="translate(4.453 6.075)"><path class="b" d="M105.071,135.885h-.43v-5.9a.38.38,0,0,0-.38-.38h-1.823a.38.38,0,0,0-.38.38v5.9H101V131.81a.38.38,0,0,0-.38-.38H98.794a.38.38,0,0,0-.38.38v4.075H97.351V131.2a.38.38,0,0,0-.38-.38H95.149a.38.38,0,0,0-.38.38v4.683h-.43a.38.38,0,1,0,0,.759h10.732a.38.38,0,1,0,0-.759Zm-8.48,0H95.528v-4.3h1.063Zm3.645,0H99.173v-3.7h1.063Zm3.645,0h-1.063v-5.518h1.063Z" transform="translate(-93.959 -129.608)"/></g></g></g></svg>