<svg xmlns="http://www.w3.org/2000/svg" width="35.566" height="35.566" viewBox="0 0 35.566 35.566"><defs><style>.a{fill:#fff;}.b{fill:#8d8d8d;}</style></defs><g transform="translate(-1292.968 -95.481)"><circle class="a" cx="17.783" cy="17.783" r="17.783" transform="translate(1292.968 95.481)"/><g transform="translate(1303.2 103.752)"><path class="b" d="M13.094,2.59a8.841,8.841,0,0,0-12.5,0A8.783,8.783,0,0,0-2,8.842,8.861,8.861,0,0,0-.138,14.27l-1.208,5.1a.392.392,0,0,0,.131.392.392.392,0,0,0,.25.09A.392.392,0,0,0-.8,19.817L4.629,17.4A8.842,8.842,0,0,0,13.094,2.59ZM6.842,16.9A8.082,8.082,0,0,1,4.7,16.611a.392.392,0,0,0-.263.02L-.4,18.779.669,14.265a.392.392,0,0,0-.078-.338A8.057,8.057,0,1,1,6.842,16.9Zm0,0" transform="translate(2)"/><path class="b" d="M114.441,109.092a5.576,5.576,0,1,0-5.576,5.576A5.582,5.582,0,0,0,114.441,109.092Zm-5.576,4.792a4.792,4.792,0,1,1,4.792-4.792A4.8,4.8,0,0,1,108.865,113.884Zm0,0" transform="translate(-100.023 -100.305)"/><path class="b" d="M397.026,377.931a.392.392,0,0,0-.493.254,4.177,4.177,0,0,1-1.968,2.154.392.392,0,1,0,.393.679,4.933,4.933,0,0,0,2.321-2.593A.392.392,0,0,0,397.026,377.931Zm0,0" transform="translate(-382.075 -366.19)"/><path class="b" d="M351.7,478.991a.392.392,0,0,0-.511.216l0,0a.392.392,0,0,0,.727.295l0,0A.392.392,0,0,0,351.7,478.991Zm0,0" transform="translate(-340.207 -464.106)"/><path class="b" d="M263.016,364.414a.571.571,0,0,0-.457.2.768.768,0,0,0,0,.97.564.564,0,0,0,.457.208.657.657,0,0,0,.487-.208.688.688,0,0,0-.487-1.173Zm0,0" transform="translate(-254.186 -353.111)"/><path class="b" d="M229.77,166.843a2.262,2.262,0,0,0-1.523-.487,2.194,2.194,0,0,0-1.361.386,1.058,1.058,0,0,0-.508.812.437.437,0,0,0,.157.36.541.541,0,0,0,.349.127.39.39,0,0,0,.268-.1,1.229,1.229,0,0,0,.2-.221.742.742,0,0,1,.3-.221,1.317,1.317,0,0,1,.556-.1,1.182,1.182,0,0,1,.759.226.768.768,0,0,1,.283.637,1,1,0,0,1-.117.467,1.365,1.365,0,0,1-.233.341q-.117.115-.35.316l-.294.241a2.012,2.012,0,0,0-.609,1.586.681.681,0,0,0,.106.442.462.462,0,0,0,.361.121q.507,0,.508-.366a2.94,2.94,0,0,1,.081-.792,1.168,1.168,0,0,1,.426-.548l.194-.162.266-.254q.082-.081.251-.289a2.294,2.294,0,0,0,.256-.376,2.573,2.573,0,0,0,.164-.411,1.64,1.64,0,0,0,.077-.5A1.549,1.549,0,0,0,229.77,166.843Zm0,0" transform="translate(-219.295 -161.196)"/></g></g></svg>