<svg xmlns="http://www.w3.org/2000/svg" width="55" height="55" viewBox="0 0 55 55"><defs><style>.a{fill:rgba(28,153,139,0.1);}.b{fill:#1c998b;}</style></defs><g transform="translate(-148.5 -196.5)"><circle class="a" cx="27.5" cy="27.5" r="27.5" transform="translate(148.5 196.5)"/><g transform="translate(160.792 208.435)"><g transform="translate(0 10.337)"><path class="b" d="M20.554,182.614a.594.594,0,0,0-.594.594v4.1a2.974,2.974,0,0,1-2.97,2.97H10.576a.594.594,0,0,0-.594.594v1.181l-1.418-1.418a.594.594,0,0,0-.545-.357H4.158a2.974,2.974,0,0,1-2.97-2.97v-9.148a2.974,2.974,0,0,1,2.97-2.97h6a.594.594,0,1,0,0-1.188h-6A4.163,4.163,0,0,0,0,178.158v9.148a4.163,4.163,0,0,0,4.158,4.158H7.714l2.44,2.44a.594.594,0,0,0,1.014-.42v-2.02h5.82a4.163,4.163,0,0,0,4.158-4.158v-4.1A.594.594,0,0,0,20.554,182.614Z" transform="translate(0 -174)"/></g><g transform="translate(11.644)"><path class="b" d="M206.138,0h-1.5a8.634,8.634,0,0,0,0,17.269h1.5a8.651,8.651,0,0,0,2.191-.281l2.221,2.22a.594.594,0,0,0,1.014-.42V15.35a8.717,8.717,0,0,0,2.27-2.8,8.541,8.541,0,0,0,.938-3.918A8.644,8.644,0,0,0,206.138,0Zm4.475,14.586a.594.594,0,0,0-.237.475v2.293L208.922,15.9a.594.594,0,0,0-.594-.148,7.448,7.448,0,0,1-2.19.327h-1.5a7.446,7.446,0,0,1,0-14.893h1.5a7.446,7.446,0,0,1,4.475,13.4Z" transform="translate(-196)"/></g><g transform="translate(18.681 4.162)"><path class="b" d="M319.486,72.4a2.515,2.515,0,0,0-5.024.177.594.594,0,0,0,1.188,0,1.327,1.327,0,0,1,1.422-1.324,1.327,1.327,0,0,1,.2,2.619,1.124,1.124,0,0,0-.886,1.1V76.4a.594.594,0,1,0,1.188,0v-1.38A2.5,2.5,0,0,0,319.486,72.4Z" transform="translate(-314.462 -70.063)"/></g><g transform="translate(20.602 12.257)"><path class="b" d="M347.814,206.5a.594.594,0,1,0,.174.42A.6.6,0,0,0,347.814,206.5Z" transform="translate(-346.8 -206.33)"/></g><g transform="translate(3.208 18.416)"><path class="b" d="M67.129,310H54.594a.594.594,0,0,0,0,1.188H67.129a.594.594,0,0,0,0-1.188Z" transform="translate(-54 -310)"/></g><g transform="translate(15.743 21.743)"><path class="b" d="M266.014,366.174a.594.594,0,1,0,.174.42A.6.6,0,0,0,266.014,366.174Z" transform="translate(-265 -366)"/></g><g transform="translate(3.208 21.743)"><path class="b" d="M64.792,366h-10.2a.594.594,0,0,0,0,1.188h10.2a.594.594,0,0,0,0-1.188Z" transform="translate(-54 -366)"/></g><g transform="translate(3.208 15.089)"><path class="b" d="M63.267,254H54.594a.594.594,0,0,0,0,1.188h8.673a.594.594,0,1,0,0-1.188Z" transform="translate(-54 -254)"/></g></g></g></svg>