<svg xmlns="http://www.w3.org/2000/svg" width="34.5" height="36" viewBox="0 0 34.5 36"><defs><style>.a{fill:#ffa000;}.b{fill:#ffc107;}.c{fill:#e93d62;}</style></defs><path class="a" d="M140,347.332a6,6,0,1,1-6-6A6,6,0,0,1,140,347.332Zm0,0" transform="translate(-119 -317.332)"/><path class="b" d="M25.512,57.549a10.476,10.476,0,0,1-8.122-14.6A10.464,10.464,0,0,0,4.5,53.168V57.35a10.058,10.058,0,0,1-3.582,7.7,2.625,2.625,0,0,0,1.707,4.619h24.75a2.625,2.625,0,0,0,1.692-4.632A10.044,10.044,0,0,1,25.512,57.549Zm0,0" transform="translate(0 -39.668)"/><path class="c" d="M292.332,7.5a7.5,7.5,0,1,1-7.5-7.5A7.5,7.5,0,0,1,292.332,7.5Zm0,0" transform="translate(-257.832)"/></svg>